<?xml version="1.0" encoding="utf-8"?>
<svg viewBox="0 0 500 500" xmlns="http://www.w3.org/2000/svg">
  <ellipse style="stroke: rgb(0, 0, 0); fill-rule: nonzero; paint-order: fill; fill: rgb(255, 255, 255);" cx="249.096" cy="254.757" rx="248.714" ry="249.014"/>
  <ellipse style="stroke: rgb(0, 0, 0); fill-rule: nonzero; paint-order: fill; fill-opacity: 0.13; fill: rgb(252, 181, 96);" cx="250" cy="256.16" rx="248.714" ry="249.014"/>
  <path d="M0 0 C1.49285522 0.81065918 1.49285522 0.81065918 3.01586914 1.63769531 C4.70341309 2.54720947 4.70341309 2.54720947 6.42504883 3.47509766 C7.6338588 4.13839656 8.84251372 4.80197808 10.05102539 5.46582031 C11.31537546 6.15207993 12.58002823 6.83778215 13.8449707 7.52294922 C22.3241595 12.12917298 30.72469689 16.86942221 39.10327148 21.65600586 C48.74215683 27.1329849 58.54078138 32.29991313 68.34106445 37.47998047 C69.70404972 38.20046496 71.06700579 38.92100468 72.42993164 39.64160156 C73.09403046 39.99270996 73.75812927 40.34381836 74.44235229 40.70556641 C81.94499591 44.67732797 89.39269801 48.74782175 96.83618164 52.82910156 C100.5445214 54.86203279 104.26144289 56.87815854 107.98461914 58.88378906 C117.75260376 64.14687521 127.47828743 69.46301748 137.11352539 74.96582031 C147.8998266 81.1227628 158.85404395 86.94530444 169.84985352 92.71679688 C170.50621292 93.06245697 171.16257233 93.40811707 171.83882141 93.76425171 C173.61761704 94.70068714 175.39809738 95.63392048 177.17871094 96.56689453 C178.06804652 97.06934425 178.06804652 97.06934425 178.97534847 97.58194447 C181.21438451 98.81055923 181.21438451 98.81055923 184.07489109 99.95781231 C192.44419272 103.89472306 192.44419272 103.89472306 194.20505047 108.6856041 C194.59335022 112.45751311 194.6005614 116.13257817 194.47583008 119.9128418 C194.47244162 121.35227676 194.47435222 122.79173245 194.48114014 124.2311554 C194.484574 128.12501218 194.41420742 132.01440404 194.33025265 135.90722537 C194.25506445 139.98024049 194.248175 144.05336638 194.23394775 148.12696838 C194.19669811 155.8342339 194.09829845 163.53944874 193.97775388 171.24581248 C193.84346779 180.02181713 193.77760821 188.79792151 193.71740866 197.57469833 C193.59208639 215.62313674 193.37209344 233.66876509 193.11352539 251.71582031 C181.23352539 251.71582031 169.35352539 251.71582031 157.11352539 251.71582031 C156.61852539 189.84082031 156.61852539 189.84082031 156.11352539 126.71582031 C134.83247546 138.17453325 134.83247546 138.17453325 113.60180664 149.72363281 C109.81374259 151.79257725 106.01890174 153.8483986 102.21899414 155.89550781 C92.27046296 161.25731043 82.36749993 166.67786892 72.55102539 172.27832031 C64.04956876 177.1260427 55.44243185 181.71387648 46.74267578 186.19433594 C39.90000508 189.73639692 33.17931857 193.4579931 26.48852539 197.27832031 C22.69947982 199.42880711 18.90715338 201.57342941 15.11352539 203.71582031 C14.13915527 204.26850586 13.16478516 204.82119141 12.16088867 205.390625 C9.30254269 207.00030768 6.4297217 208.58038527 3.55102539 210.15332031 C2.68848145 210.64453369 1.8259375 211.13574707 0.93725586 211.6418457 C0.12788574 212.07746826 -0.68148437 212.51309082 -1.51538086 212.96191406 C-2.21735596 213.35048584 -2.91933105 213.73905762 -3.64257812 214.1394043 C-8.63709921 215.42240552 -13.48962758 212.00823955 -17.78881836 209.69628906 C-19.4763623 208.79160889 -19.4763623 208.79160889 -21.19799805 207.86865234 C-22.40678553 207.21377904 -23.61544104 206.55866208 -24.82397461 205.90332031 C-26.08854483 205.22202276 -27.35319438 204.54087245 -28.61791992 203.85986328 C-37.10333928 199.27899153 -45.5035915 194.55932383 -53.8762207 189.77539062 C-63.51543553 184.29905462 -73.31375198 179.1317162 -83.11401367 173.95166016 C-84.47699894 173.23117567 -85.83995501 172.51063595 -87.20288086 171.79003906 C-88.19902908 171.26337646 -88.19902908 171.26337646 -89.21530151 170.72607422 C-96.71794512 166.75431265 -104.16564723 162.68381887 -111.60913086 158.60253906 C-115.31747061 156.56960783 -119.03439211 154.55348209 -122.75756836 152.54785156 C-132.52556066 147.28476127 -142.25107579 141.96834902 -151.88647461 136.46582031 C-164.60603415 129.20968821 -177.55771998 122.39893223 -190.50842285 115.56784058 C-195.99596035 112.66860797 -201.44897408 109.70786532 -206.88647461 106.71582031 C-204.29567081 103.73380289 -201.31930618 102.19758647 -197.83959961 100.37988281 C-197.24094086 100.06458115 -196.6422821 99.74927948 -196.02548218 99.42442322 C-194.7372566 98.74622173 -193.44781412 98.07032768 -192.1572876 97.39651489 C-188.71911084 95.60037413 -185.29081246 93.78562027 -181.86303711 91.96972656 C-180.83084549 91.42326729 -180.83084549 91.42326729 -179.77780151 90.86576843 C-173.96063787 87.77624327 -168.22431381 84.55667539 -162.51147461 81.27832031 C-152.71806017 75.67077237 -142.77510341 70.37650748 -132.79473877 65.11257935 C-124.25127683 60.60359256 -115.76911716 56.01976597 -107.38647461 51.21582031 C-97.63511109 45.62748464 -87.73386329 40.35469976 -77.79418945 35.11230469 C-69.25081731 30.60335834 -60.77038769 26.01726052 -52.38647461 21.21582031 C-43.63623378 16.23196307 -34.84817904 11.31925877 -25.99438477 6.52172852 C-24.55874637 5.74060558 -23.12621728 4.95373799 -21.69702148 4.16088867 C-19.69413525 3.05134057 -17.68087418 1.96340588 -15.66381836 0.87988281 C-15.0679039 0.54417267 -14.47198944 0.20846252 -13.85801697 -0.13742065 C-8.58285226 -2.91962338 -5.30789935 -2.36146076 0 0 Z " transform="matrix(1, 0, 0, 1, 256.886474609375, 89.2841796875)" style="fill: rgb(21, 20, 19);"/>
  <path d="M0 0 C3.74231369 1.21558743 7.09317386 2.45394937 10.4921875 4.44140625 C11.34554687 4.93382812 12.19890625 5.42625 13.078125 5.93359375 C14.46257812 6.73990234 14.46257812 6.73990234 15.875 7.5625 C25.48144854 13.08056444 35.19970936 18.33726676 45 23.5 C55.15181286 28.85256064 65.21012276 34.32216002 75.16845703 40.02929688 C84.9967371 45.62947638 94.99776073 50.90070557 105.00195312 56.17773438 C105.65838806 56.52437134 106.314823 56.8710083 106.9911499 57.22814941 C108.26852112 57.90148303 109.54702141 58.57267967 110.82672119 59.24157715 C114.98537642 61.42419299 119.02353331 63.75004543 122.97705078 66.28515625 C126.89736732 67.67046724 130.22150743 66.34634787 133.88647461 64.71582031 C134.88171143 64.17538086 135.87694824 63.63494141 136.90234375 63.078125 C138.59145874 62.16776489 138.59145874 62.16776489 140.31469727 61.23901367 C141.52245503 60.57629489 142.73005219 59.91328334 143.9375 59.25 C145.19232991 58.5688698 146.44746084 57.88829388 147.70288086 57.20825195 C156.49591157 52.43126182 165.21403216 47.52374283 173.90600586 42.56542969 C180.47207807 38.82917403 187.11429992 35.27642676 193.81884766 31.79638672 C199.93725255 28.6025666 205.94312778 25.23263353 211.9375 21.8125 C220.37344718 17.00679087 228.86216042 12.30983865 237.41189575 7.71029663 C238.6746169 7.03077224 239.9365665 6.34981209 241.19772339 5.66738892 C242.95886938 4.71526251 244.72349921 3.76958866 246.48828125 2.82421875 C247.50446533 2.27854248 248.52064941 1.73286621 249.56762695 1.1706543 C252 0 252 0 254 0 C254.23197133 9.28358741 254.40951047 18.56617406 254.51812172 27.8520298 C254.57025895 32.16427768 254.64092827 36.47453979 254.75439453 40.78564453 C254.86327 44.94850427 254.9228823 49.10945828 254.94877243 53.27363205 C254.96721364 54.85989778 255.00323132 56.44606199 255.05730057 58.03151321 C255.46340722 70.43601887 255.46340722 70.43601887 251.91430664 74.22903442 C249.32989119 75.80545161 246.82923035 76.93555013 244 78 C242.95295898 78.58604004 241.90591797 79.17208008 240.82714844 79.77587891 C239.9302832 80.25460449 239.03341797 80.73333008 238.109375 81.2265625 C237.08183105 81.77707275 236.05428711 82.32758301 234.99560547 82.89477539 C233.92455566 83.46574951 232.85350586 84.03672363 231.75 84.625 C229.43462966 85.86538869 227.11952968 87.10628217 224.8046875 88.34765625 C223.65709961 88.9627002 222.50951172 89.57774414 221.32714844 90.21142578 C215.59907753 93.29066319 209.89384321 96.41139439 204.18823242 99.53198242 C199.50086031 102.09416385 194.80837386 104.64610999 190.10546875 107.1796875 C180.11606323 112.56345643 170.17357379 118.00917941 160.3125 123.625 C157.49007526 125.22173866 154.66554038 126.81460321 151.83886719 128.40380859 C149.90801652 129.48945545 147.97904553 130.57845069 146.05175781 131.67041016 C143.19178404 133.2812163 140.31749101 134.86282502 137.4375 136.4375 C136.57487549 136.92879395 135.71225098 137.42008789 134.82348633 137.92626953 C133.609552 138.57958252 133.609552 138.57958252 132.37109375 139.24609375 C131.66911865 139.63466553 130.96714355 140.0232373 130.24389648 140.42358398 C125.25207937 141.70589061 120.42218478 138.30198578 116.1328125 135.98046875 C115.01221436 135.37702637 113.89161621 134.77358398 112.73706055 134.15185547 C111.53296052 133.49721715 110.32894235 132.84242825 109.125 132.1875 C107.86975803 131.50888782 106.61430247 130.8306706 105.35864258 130.15283203 C102.80002381 128.77064959 100.24293164 127.38570162 97.68701172 125.99853516 C94.33879129 124.18205512 90.9847272 122.37662535 87.62890625 120.57421875 C77.83371627 115.30485123 68.09983102 109.94688919 58.4375 104.4375 C49.95013773 99.59811931 41.35745508 95.01801339 32.6730957 90.54345703 C25.40556885 86.77992751 18.24787627 82.84272382 11.125 78.8125 C10.12533203 78.24724609 9.12566406 77.68199219 8.09570312 77.09960938 C1.13908675 73.13908675 1.13908675 73.13908675 0 72 C-0.09436529 69.76070114 -0.11742327 67.5183825 -0.11352539 65.27709961 C-0.11367142 64.5746965 -0.11381744 63.8722934 -0.1139679 63.14860535 C-0.11326872 60.81648722 -0.10547617 58.484448 -0.09765625 56.15234375 C-0.09579208 54.53951562 -0.09436818 52.92668693 -0.09336853 51.31385803 C-0.08954323 47.06084643 -0.07971285 42.80786876 -0.06866455 38.55487061 C-0.05845069 34.2182257 -0.05387096 29.88157533 -0.04882812 25.54492188 C-0.03809059 17.02993231 -0.02101403 8.51497037 0 0 Z " fill="#4D330C" transform="matrix(1, 0, 0, 1, 123.00000000000003, 272)"/>
</svg>